<svg
  xmlns="http://www.w3.org/2000/svg"
  viewBox="0 0 1128 552">
  <defs>
    <svg
      id="circle"
      x="0"
      y="0"
      viewBox="0 0 512 512">
      <path
        stroke-linejoin="round"
        stroke-linecap="round"
        stroke-width="2"
        d="M512 256C512 397.4 397.4 512 256 512C114.6 512 0 397.4 0 256C0 114.6 114.6 0 256 0C397.4 0 512 114.6 512 256z"/>
    </svg>
    <svg
      id="activity"
      x="0"
      y="0"
      viewBox="0 0 24 24">
      <path
        fill="none"
        stroke-linejoin="round"
        stroke-linecap="round"
        stroke-width="2"
        stroke="currentColor"
        d="M22 12h-4l-3 9L9 3l-3 9H2"/>
    </svg>
    <svg
      id="list"
      x="0"
      y="0"
      viewBox="0 0 237.72 209.58">
      <g id="Layer_2" data-name="Layer 2">
        <g id="Layer_1-2" data-name="Layer 1">
          <path d="M218.56,0H19.16A19.16,19.16,0,0,0,0,19.16V190.42a19.16,19.16,0,0,0,19.16,19.16h199.4a19.16,19.16,0,0,0,19.16-19.16V19.16A19.16,19.16,0,0,0,218.56,0ZM58.68,171.56A19.76,19.76,0,1,1,78.44,151.8,19.76,19.76,0,0,1,58.68,171.56Zm0-45.51a19.76,19.76,0,1,1,19.76-19.76A19.76,19.76,0,0,1,58.68,126.05Zm0-43.71A19.77,19.77,0,1,1,78.44,62.57,19.77,19.77,0,0,1,58.68,82.34Zm134.73,76.34a8.09,8.09,0,0,1-8.08,8.09H96.71a8.09,8.09,0,0,1-8.09-8.09V144.91a8.09,8.09,0,0,1,8.09-8.08h88.62a8.08,8.08,0,0,1,8.08,8.08Zm0-43.11a8.08,8.08,0,0,1-8.08,8.08H96.71a8.09,8.09,0,0,1-8.09-8.08V101.8a8.09,8.09,0,0,1,8.09-8.09h88.62a8.09,8.09,0,0,1,8.08,8.09Zm0-47.61a8.09,8.09,0,0,1-8.08,8.09H96.71A8.09,8.09,0,0,1,88.62,68V54.19a8.09,8.09,0,0,1,8.09-8.08h88.62a8.08,8.08,0,0,1,8.08,8.08Z"/>
        </g>
      </g>
    </svg>

    <svg
      id="product"
      x="0"
      y="0"
      viewBox="0 0 216 214">
      <defs>
        <style>.cls-3{stroke-linecap:round;stroke-miterlimit:10;stroke-width:25px;}
        </style>
      </defs>
      <g id="Layer_2" data-name="Layer 2">
        <g id="Layer_1-2" data-name="Layer 1">
          <path class="cls-1" d="M90,21.59V68.44A21.56,21.56,0,0,1,68.44,90H21.59A21.6,21.6,0,0,1,0,68.4V21.55A21.55,21.55,0,0,1,21.55,0H68.4A21.6,21.6,0,0,1,90,21.59Z"/>
          <path class="cls-1" d="M209,21.56V68.44A21.56,21.56,0,0,1,187.44,90H140.59A21.6,21.6,0,0,1,119,68.4V21.55A21.55,21.55,0,0,1,140.55,0h46.89A21.56,21.56,0,0,1,209,21.56Z"/>
          <path class="cls-1" d="M90,140.59v46.85A21.56,21.56,0,0,1,68.44,209H21.55A21.55,21.55,0,0,1,0,187.45v-46.9A21.55,21.55,0,0,1,21.55,119H68.4A21.6,21.6,0,0,1,90,140.59Z"/>
          <line stroke="currentColor" class="cls-3" x1="163.5" y1="201.5" x2="163.5" y2="120.5"/>
          <line stroke="currentColor" class="cls-3" x1="124.5" y1="160.5" x2="203.5" y2="160.5"/>
        </g>
      </g>
    </svg>


    <svg
      id="category"
      x="0"
      y="0"
      viewBox="0 0 298.66 236.69">
      <g id="Layer_2" data-name="Layer 2">
        <g id="Layer_1-2" data-name="Layer 1">
          <path d="M233.62,88.08s-75.83,1.53-82.73,74.17c0,0-9.95,42.82,31.41,74.17H30.64S.77,242.54,0,196.66V106.43S.77,75.84,36,75.84H206A38.35,38.35,0,0,1,233.62,88.08Z"/><path d="M229.53,98.44a69.13,69.13,0,1,0,69.13,69.13A69.13,69.13,0,0,0,229.53,98.44Zm37.79,75.94H238.19l.56,32.72a7.48,7.48,0,1,1-14.95.25l-.57-33H191.74a7.53,7.53,0,0,1,0-15.06H223l-.48-27.64a7.48,7.48,0,1,1,14.95-.26l.48,27.9h29.39a7.53,7.53,0,1,1,0,15.06Z"/>
          <rect x="21.32" y="37.92" width="190.98" height="19.91" rx="9.96"/><rect x="46.21" width="146.3" height="19.91" rx="9.96"/>
        </g>
      </g>
    </svg>


    <svg
      id="manageorders"
      x="0"
      y="0"
         viewBox="0 0 156 160">
      <defs>
      </defs>
      <g id="Layer_2" data-name="Layer 2">
        <g id="Layer_1-2" data-name="Layer 1">
          <path d="M0,14.55v129.9A14.56,14.56,0,0,0,14.55,159h79.9A14.56,14.56,0,0,0,109,144.45V0H14.55A14.56,14.56,0,0,0,0,14.55ZM13.61,21H60.73a2.59,2.59,0,0,1,2.55,1.88A2.51,2.51,0,0,1,60.85,26H13.73a2.58,2.58,0,0,1-2.55-1.88A2.5,2.5,0,0,1,13.61,21Zm0,15H60.73a2.59,2.59,0,0,1,2.55,1.88A2.51,2.51,0,0,1,60.85,41H13.73a2.58,2.58,0,0,1-2.55-1.88A2.5,2.5,0,0,1,13.61,36Zm.55,35H95.54a2.59,2.59,0,0,1,2.55,1.88A2.51,2.51,0,0,1,95.66,76H14a2.51,2.51,0,0,1-2.43-3.12A2.59,2.59,0,0,1,14.16,71ZM44.3,126.21l-17,19.51a2.53,2.53,0,0,1-1.13.74,2.1,2.1,0,0,1-2.36-.42l-.05,0,0,0,0,0a3.33,3.33,0,0,1-.25-.28L13.12,135.34a2.1,2.1,0,0,1,0-3l.54-.54a2.1,2.1,0,0,1,3,0l8.54,8.54,15.26-17.53a2.53,2.53,0,0,1,3.58-.25l0,0A2.54,2.54,0,0,1,44.3,126.21Zm0-34.55-17,19.51a2.53,2.53,0,0,1-1.13.74,2.1,2.1,0,0,1-2.36-.42l-.05,0,0,0,0,0a3.2,3.2,0,0,1-.25-.27L13.12,100.79a2.1,2.1,0,0,1,0-3l.54-.54a2.12,2.12,0,0,1,3,0l8.54,8.55L40.43,88.29A2.55,2.55,0,0,1,44,88l0,0A2.54,2.54,0,0,1,44.3,91.66ZM81.85,129H56a2.56,2.56,0,0,1-2.54-1.88A2.5,2.5,0,0,1,55.85,124H81.73a2.59,2.59,0,0,1,2.55,1.88A2.51,2.51,0,0,1,81.85,129Zm2.33-18H56a2.56,2.56,0,0,1-2.54-1.88A2.5,2.5,0,0,1,55.85,106H84.06a2.59,2.59,0,0,1,2.55,1.88A2.51,2.51,0,0,1,84.18,111ZM95.85,93H56a2.56,2.56,0,0,1-2.54-1.88A2.5,2.5,0,0,1,55.85,88H95.73a2.59,2.59,0,0,1,2.55,1.88A2.51,2.51,0,0,1,95.85,93Zm0-34H14.35a2.59,2.59,0,0,1-2.55-1.88A2.51,2.51,0,0,1,14.23,54h81.5a2.59,2.59,0,0,1,2.55,1.88A2.51,2.51,0,0,1,95.85,59Z"/>
          <path fill="currentColor" d="M156,130.76V125l-8-2.21-2.49-7.17,3.87-5.93L143,102.9l-6.91,3.31-6.37-3.59L128.06,96h-9.12l-1.66,6.62-7.19,3.86-5.81-3-5.54,6.21,3.05,5.65-3.32,7.17L91,125v7.72l6.91,2,3.6,6.55-3.6,6.9,6.64,5.79,6.92-2.48,5.81,3.58,2.76,5h7.19l2.77-6.62,6.64-3,6.36,3,6.09-6.07L146.32,141l2.49-6.28Zm-32.59,10A10.76,10.76,0,1,1,134.17,130,10.76,10.76,0,0,1,123.41,140.75Z"/>
        </g>
      </g>
    </svg>


    <svg
      id="customers"
      x="0"
      y="0"
         viewBox="0 0 201.28 158.63">
      <g id="Layer_2" data-name="Layer 2">
        <g id="Layer_2-2" data-name="Layer 2">
          <ellipse cx="101.57" cy="82.5" rx="20.03" ry="20.8"/>
          <path d="M68.44,152.32V126.08s4.1-23.39,32.2-20.55c0,0,27.8-6,34.49,20.55v25.13s-7.61,8.3-31.59,7.35C103.54,158.56,71.94,156,68.44,152.32Z"/><path d="M120,100.47s22.62,7.83,20.33,35.8c0,0,14.85,3.8,27.87-5.69V105s-6.86-22.77-25.81-21.21l-15.76-.08S126.61,98.58,120,100.47Z"/><path d="M77.27,83.66a18.91,18.91,0,0,0,6.17,16.1s-21,8.85-20.78,37.26c0,0-26.5-1.93-29.47-6.67V109s1.6-24,21.7-25.27Z"/><path d="M42.1,63.49s-.23,12,6.62,15.59c0,0-20.78,8.12-20.78,36.8,0,0-22.31,1.49-27.94-5.54V87.91S1.67,67.28,19,64.44Z"/>
          <path d="M86.87,46.65a21.25,21.25,0,0,1,3.88,11.86s14.62-4.27,20.1,0c0,0-.23-8.3,4.57-11.86Z"/>
          <path d="M86.87,61.59A35.18,35.18,0,0,0,77.5,78S54.21,91.7,47.13,61.59c0,0,.45-21.57,24.21-20.15C71.34,41.44,86.87,46.89,86.87,61.59Z"/><path d="M115.42,58.51s10.5,12.21,10.73,20.57c0,0,29.24,10,27.41-23.42,0,0-3.73-14.83-18.43-14.29C135.13,41.37,120.67,38.36,115.42,58.51Z"/><path d="M124.78,11.33s4.32,12.72-3.2,24.66l2.22,2.37a37.68,37.68,0,0,1,20.28-1.9s1.49-16.6,12.22-18.26C156.3,18.2,149-6.93,124.78,11.33Z"/><path d="M56.49,38.36s.91-13.28-11-19.44c0,0,9.59-24.19,30.83-9.25,0,0-3.88,19.91,3.2,26.55L78,38.36S61.51,32.9,56.49,38.36Z"/><path d="M53.52,41.21S43,49.26,42.1,59.46c0,0-18.27,9.48-28.09-14.7,0,0-3.43-19.81,17.58-23.18C31.59,21.58,52.38,19.17,53.52,41.21Z"/><path d="M147.85,39.54s8.22,5,11,19c0,0,26.5,9.5,28.32-17.3,0,0,1.37-17.79-18.95-21.11C168.18,20.1,150.82,18.68,147.85,39.54Z"/><ellipse cx="100.65" cy="21.73" rx="20.93" ry="21.73"/><path d="M159,63.49s.46,12-6.85,15.59c0,0,23.52,10.75,21.24,36.93,0,0,20.29,1.59,27.85-5.67V86.25s-1.58-21.34-21.91-22.76Z"/><path d="M14.4,36.32S9.47,55.38,27.5,60.15l-6.86-20Z"/>
        </g>
      </g>
    </svg>



    <svg
      id="customerquery"
      x="0"
      y="0"
         viewBox="0 0 384 512">
      <path d="M282.5 64H320C355.3 64 384 92.65 384 128V448C384 483.3 355.3 512 320 512H64C28.65 512 0 483.3 0 448V128C0 92.65 28.65 64 64 64H101.5C114.6 26.71 150.2 0 192 0C233.8 0 269.4 26.71 282.5 64zM192 128C209.7 128 224 113.7 224 96C224 78.33 209.7 64 192 64C174.3 64 160 78.33 160 96C160 113.7 174.3 128 192 128zM105.4 230.5C100.9 243 107.5 256.7 119.1 261.2C132.5 265.6 146.2 259.1 150.6 246.6L151.1 245.3C152.2 242.1 155.2 240 158.6 240H216.9C225.2 240 232 246.8 232 255.1C232 260.6 229.1 265.6 224.4 268.3L180.1 293.7C172.6 298 168 305.9 168 314.5V328C168 341.3 178.7 352 192 352C205.1 352 215.8 341.5 215.1 328.4L248.3 309.9C267.9 298.7 280 277.8 280 255.1C280 220.3 251.7 192 216.9 192H158.6C134.9 192 113.8 206.9 105.8 229.3L105.4 230.5zM192 384C174.3 384 160 398.3 160 416C160 433.7 174.3 448 192 448C209.7 448 224 433.7 224 416C224 398.3 209.7 384 192 384z"/>
    </svg>


    <svg
      id="events"
      x="0"
      y="0"
         viewBox="0 0 448 512">
      <path d="M96 32C96 14.33 110.3 0 128 0C145.7 0 160 14.33 160 32V64H288V32C288 14.33 302.3 0 320 0C337.7 0 352 14.33 352 32V64H400C426.5 64 448 85.49 448 112V160H0V112C0 85.49 21.49 64 48 64H96V32zM448 464C448 490.5 426.5 512 400 512H48C21.49 512 0 490.5 0 464V192H448V464zM200 272V328H144C130.7 328 120 338.7 120 352C120 365.3 130.7 376 144 376H200V432C200 445.3 210.7 456 224 456C237.3 456 248 445.3 248 432V376H304C317.3 376 328 365.3 328 352C328 338.7 317.3 328 304 328H248V272C248 258.7 237.3 248 224 248C210.7 248 200 258.7 200 272z"/>
    </svg>


    <svg
      id="stock"
      x="0"
      y="0"
      viewBox="0 0 299.4 244.01"><g id="Layer_2" data-name="Layer 2">
      <g id="Layer_1-2" data-name="Layer 1">
        <path d="M9.58,3.29H21a8.38,8.38,0,0,1,8.38,8.38V244a0,0,0,0,1,0,0H0a0,0,0,0,1,0,0V12.87A9.58,9.58,0,0,1,9.58,3.29Z"/><path d="M279.64,0H291a8.38,8.38,0,0,1,8.38,8.38V240.72a0,0,0,0,1,0,0H270.06a0,0,0,0,1,0,0V9.58A9.58,9.58,0,0,1,279.64,0Z"/>
        <rect x="163.47" y="3.29" width="60.18" height="57.19" rx="11.98"/>
        <rect x="46.33" y="124.7" width="60.18" height="57.19" rx="11.98"/>
        <rect x="119.61" y="124.7" width="60.18" height="57.19" rx="11.98"/>
        <rect x="21.56" y="77.54" width="263.17" height="27.54"/>
        <rect x="18.11" y="197.6" width="263.17" height="27.54"/>
      </g>
    </g>
    </svg>

    <svg
      id="productlist"
      x="0"
      y="0"
         viewBox="0 0 512 512">
      <path d="M88 48C101.3 48 112 58.75 112 72V120C112 133.3 101.3 144 88 144H40C26.75 144 16 133.3 16 120V72C16 58.75 26.75 48 40 48H88zM480 64C497.7 64 512 78.33 512 96C512 113.7 497.7 128 480 128H192C174.3 128 160 113.7 160 96C160 78.33 174.3 64 192 64H480zM480 224C497.7 224 512 238.3 512 256C512 273.7 497.7 288 480 288H192C174.3 288 160 273.7 160 256C160 238.3 174.3 224 192 224H480zM480 384C497.7 384 512 398.3 512 416C512 433.7 497.7 448 480 448H192C174.3 448 160 433.7 160 416C160 398.3 174.3 384 192 384H480zM16 232C16 218.7 26.75 208 40 208H88C101.3 208 112 218.7 112 232V280C112 293.3 101.3 304 88 304H40C26.75 304 16 293.3 16 280V232zM88 368C101.3 368 112 378.7 112 392V440C112 453.3 101.3 464 88 464H40C26.75 464 16 453.3 16 440V392C16 378.7 26.75 368 40 368H88z"/>
    </svg>

    <svg
      id="stocklist"
      x="0"
      y="0"
         viewBox="0 0 384 512">
      <path d="M290.7 311L95 269.7 86.8 309l195.7 41zm51-87L188.2 95.7l-25.5 30.8 153.5 128.3zm-31.2 39.7L129.2 179l-16.7 36.5L293.7 300zM262 32l-32 24 119.3 160.3 32-24zm20.5 328h-200v39.7h200zm39.7 80H42.7V320h-40v160h359.5V320h-40z"/>
    </svg>

    <svg
      id="dashboard"
      x="0"
      y="0"
      viewBox="0 0 512 512">
      <path d="M64 400C64 408.8 71.16 416 80 416H480C497.7 416 512 430.3 512 448C512 465.7 497.7 480 480 480H80C35.82 480 0 444.2 0 400V64C0 46.33 14.33 32 32 32C49.67 32 64 46.33 64 64V400zM128 320V236C128 228.3 130.8 220.8 135.9 214.1L215.3 124.2C228.3 109.4 251.4 109.7 263.1 124.8L303.2 171.8C312.2 182.7 328.6 183.4 338.6 173.4L359.6 152.4C372.7 139.3 394.4 140.1 406.5 154.2L472.3 231C477.3 236.8 480 244.2 480 251.8V320C480 337.7 465.7 352 448 352H159.1C142.3 352 127.1 337.7 127.1 320L128 320z"/>
    </svg>

    <svg
      id="aboutus"
      x="0"
      y="0"
      viewBox="0 0 343.49 228">
      <g id="Layer_2" data-name="Layer 2">
        <g id="Layer_2-2" data-name="Layer 2">
          <ellipse cx="175.24" cy="61.5" rx="66.5" ry="61.5"/>
          <path d="M110.64,34s-25.53,41.87,18.72,79.66c0,0-35.4,26.55-69.1,5.79,0,0-41.54-26.56-11.92-70.47C48.34,49,69.45,21.06,110.64,34Z"/><path d="M118.13,129.19S12.94,105.7,0,216H59.06S72.51,148.94,118.13,129.19Z"/><path d="M230.13,130.19s50.38,17.7,62,86.81h51.4S341.45,114.19,230.13,130.19Z"/><path d="M62.3,228s0-103.15,113-104.51c0,0,104.17-5.45,112.68,104.51Z"/>
          <path d="M238.88,35.27s25.53,41.87-18.73,79.66c0,0,35.41,26.55,69.11,5.78,0,0,41.53-26.55,11.92-70.46C301.18,50.25,280.07,22.33,238.88,35.27Z"/>
        </g>
      </g>
    </svg>

    <svg
      id="contactus"
      x="0"
      y="0"
      viewBox="0 0 512 512">
      <path d="M384 0H96C60.65 0 32 28.65 32 64v384c0 35.35 28.65 64 64 64h288c35.35 0 64-28.65 64-64V64C448 28.65 419.3 0 384 0zM240 128c35.35 0 64 28.65 64 64s-28.65 64-64 64c-35.34 0-64-28.65-64-64S204.7 128 240 128zM336 384h-192C135.2 384 128 376.8 128 368C128 323.8 163.8 288 208 288h64c44.18 0 80 35.82 80 80C352 376.8 344.8 384 336 384zM496 64H480v96h16C504.8 160 512 152.8 512 144v-64C512 71.16 504.8 64 496 64zM496 192H480v96h16C504.8 288 512 280.8 512 272v-64C512 199.2 504.8 192 496 192zM496 320H480v96h16c8.836 0 16-7.164 16-16v-64C512 327.2 504.8 320 496 320z"/>
    </svg>

    <svg
      id="howilook"
      x="0"
      y="0"
         viewBox="0 0 248.68 127.21"><defs>
      <style>.cls-2{fill:none;stroke:currentColor;stroke-linecap:round;stroke-linejoin:round;stroke-width:10px;}</style>
    </defs>
      <g id="Layer_2" data-name="Layer 2">
        <g id="Layer_2-2" data-name="Layer 2">
          <path d="M47.69,20.66s2-14.3,33.36-11.92c0,0,13.66-20.76,44.28,1.71,0,0,18-23.39,42.53-.12,0,0,19.06-6.35,33.36,10.33,0,0-50.61,2.09-54.75,34.41,0,0,1,22.78-22.7,5.42-3.23-6.47-16.89,8.17-16.89,8.17S81.73,15.21,47.69,20.66Z"/><path class="cls-2" d="M191.08,43.53s-26-4.35-30,26.07"/>
          <path class="cls-2" d="M55.93,39.15S30.59,32.06,23.37,61.87"/>
          <path  d="M123.63,56.45A19.38,19.38,0,1,0,143,75.83,19.38,19.38,0,0,0,123.63,56.45Zm.31,29.07a9.69,9.69,0,1,1,9.69-9.69A9.68,9.68,0,0,1,123.94,85.52Z"/><path class="cls-3" d="M54.64,17.94a54.64,54.64,0,1,0,54.64,54.64A54.64,54.64,0,0,0,54.64,17.94Zm0,96.77A42.14,42.14,0,1,1,96.77,72.58,42.14,42.14,0,0,1,54.64,114.71Z"/><path class="cls-3" d="M194,17.94a54.64,54.64,0,1,0,54.64,54.64A54.64,54.64,0,0,0,194,17.94Zm0,96.77a42.14,42.14,0,1,1,42.14-42.13A42.13,42.13,0,0,1,194,114.71Z"/>
        </g>
      </g>
    </svg>

    <svg
      id="products"
      x="0"
      y="0"
         viewBox="0 0 269.94 211.07">
      <defs>
        <style>.cls-1{fill:none;}</style>
      </defs>
      <g id="Layer_2" data-name="Layer 2">
        <g id="Layer_1-2" data-name="Layer 1">
          <path d="M246,28.31C234-10,198.68,2,198.68,2c-22.75,1.2-14.37,16.77-14.37,16.77,6.59,14.37,16.77,5.39,16.77,5.39,20.36-4.79,25.75,11.38,25.75,11.38L246,110.63c-48.5-21.27-93,7.5-93,7.5-14.51-7.18-35.19,0-35.19,0C68.14,88.79,28,111.55,28,111.55c-1.79-6,14.38-63.48,14.38-63.48,4.79-34.13,28.74-23.95,28.74-23.95,15,4.19,15-6.59,15-6.59C92.7,3.16,67,.19,67,.19c-28.75-3-43.72,29.32-43.72,29.32l-22.15,91c-10.78,106,70.66,89.63,70.66,89.63C131,209.38,128,142.68,128,142.68l16.17,1.2c1.8,74.85,67.07,65.87,67.07,65.87,49.1,5.39,58.68-43.71,58.68-43.71V118.13ZM64.76,182.2s-38.63,6-33.84-42.51c0,0,41.92-15.57,67.67,0C98.59,139.69,100.38,187,64.76,182.2Zm144,0s-38.63,6-33.84-42.51c0,0,41.92-15.57,67.67,0C242.6,139.69,244.4,187,208.77,182.2Z"/><line class="cls-1" y1="117.53" x2="2.62" y2="164.61"/>
        </g>
      </g>
    </svg>


  </defs>
</svg>
