<svg xmlns="http://www.w3.org/2000/svg" version="1.1" xmlns:xlink="http://www.w3.org/1999/xlink"
     xmlns:svgjs="http://svgjs.dev/svgjs" width="2000" height="390" viewBox="0 0 2000 390">
  <svg viewBox="0 0 302.1857 58.814299999999996" height="58.814299999999996" width="302.1857">
    <g>
      <svg viewBox="0 0 302.1857 58.814299999999996" height="58.814299999999996" width="302.1857">
        <g>
          <svg viewBox="0 0 302.1857 58.814299999999996" height="58.814299999999996" width="302.1857">
            <g id="textblocktransform">
              <svg viewBox="0 0 302.1857 58.814299999999996" height="58.814299999999996" width="302.1857"
                   id="textblock">
                <g>
                  <svg viewBox="0 0 302.1857 58.814299999999996" height="58.814299999999996" width="302.1857">
                    <g>
                      <svg>
                        <g></g>
                        <g></g>
                      </svg>
                    </g>
                    <g>
                      <svg>
                        <g>
                          <svg></svg>
                        </g>
                        <g></g>
                      </svg>
                    </g>
                    <g id="text-0">
                      <svg viewBox="0 0 302.1857 58.814299999999996" height="58.814299999999996" width="302.1857">
                        <g transform="matrix(1,0,0,1,0,11.307149999999996)">
                          <svg width="64.8" viewBox="0.15 -35.3 64.8 35.699999999999996" height="35.7"
                               data-palette-color="#d5b263">
                            <path
                              d="M30.4-1.95L30.75 0 21.05 0 19.9-1.2 23.8-2.3 22.25-9.35 21.05-11.65 8.65-10.1 7.85-7.4 7.1-2.3 10.2-1.2 10.2 0.4 0.15-0.35 0.15-1.95 3.2-2.7 12.5-35.3 17.95-34.5 27.7-2.7 30.4-1.95ZM9.8-13.15L19.9-15.1 15.65-30.65 14.9-30.25 9.8-14 9.8-13.15ZM50.35-19.15L54.8-23.9 53-30.35 45.65-31.65 40.5-30.85 41.35-19.75 50.35-19.15ZM61.8-9.45L64.95-6.15 58.75-0.6 54.85-1.25 52.2-13 47.5-16.45 41-15.5 41.15-3.1 44.3-2.05 44.7-0.15 33.95-0.3 33.85-1.65 36.8-2.8 36.2-29.25 34.4-31.2 30.8-31.6 30.95-34.3 35.05-34.4 37.15-33.55 38.4-34.65 52-34.45 58.3-28.65 57.4-20.3 53.05-17 56.75-13.45 57.1-4.45 58.2-4.05 61.8-9.45Z"
                              opacity="1" transform="matrix(1,0,0,1,0,0)" fill="#FFBF00FF"
                              class="undefined-yy-0"></path>
                          </svg>
                        </g>
                        <g>
                          <svg xmlns="http://www.w3.org/2000/svg" xmlns:xlink="http://www.w3.org/1999/xlink"
                               version="1.1" x="78.6857" y="0" viewBox="0 0 96 96"
                               enable-background="new 0 0 96 96" xml:space="preserve" height="58.814299999999996"
                               width="58.814299999999996" class="icon-cg-0" data-fill-palette-color="accent"
                               id="cg-0">
                                  <path d="M48 26c-12.132 0-22 9.868-22 22s9.868 22 22 22 22-9.868 22-22S60.132 26 48 26z" fill="#FFBF00FF" data-fill-palette-color="accent"></path>
                            <path
                              d="M48 0C21.492 0 0 21.492 0 48s21.492 48 48 48 48-21.492 48-48S74.508 0 48 0zM14 48c0 1.1-0.896 2-2 2s-2-0.9-2-2c0-20.952 17.048-38 38-38 1.104 0 2 0.9 2 2s-0.896 2-2 2C29.248 14 14 29.252 14 48zM22 48c0-14.336 11.664-26 26-26s26 11.664 26 26S62.336 74 48 74 22 62.336 22 48zM80.952 66.936c-3.632 6.301-8.956 11.416-15.4 14.769-0.296 0.155-0.608 0.231-0.92 0.231-0.728 0-1.416-0.396-1.776-1.08-0.508-0.979-0.131-2.188 0.849-2.699 5.764-3.008 10.532-7.584 13.78-13.225 0.556-0.955 1.771-1.287 2.736-0.74C81.176 64.752 81.504 65.977 80.952 66.936L80.952 66.936z"
                              fill="#FFBF00FF" data-fill-palette-color="accent"></path></svg>
                        </g>
                      </svg>
                    </g>
                  </svg>
                </g>
              </svg>
            </g>
          </svg>
        </g>
      </svg>
    </g>
    <defs></defs>
  </svg>
</svg>
