<svg id="Layer_1" data-name="Layer 1" xmlns="http://www.w3.org/2000/svg" viewBox="0 0 331.2 110.23"><defs><style>.cls-1{isolation:isolate;}.cls-2{fill:#ffbf00;}.cls-3,.cls-5{fill:none;stroke:#ffbf00;stroke-miterlimit:10;}.cls-3{stroke-width:10px;}.cls-4{fill:#efab00;}.cls-5{stroke-width:3px;}</style></defs><g id="Layer_1-2" data-name="Layer 1"><g id="Layer_1-3" data-name="Layer 1"><g id="Layer_0_Image" data-name="Layer 0 Image"><g class="cls-1"><path class="cls-2" d="M175.33,171.84h12.59v8.23H168.14V142.63h19.55v8.24H175.33v6.2h11.24v8.13H175.33Z" transform="translate(-67.84 -70.6)"/><path class="cls-2" d="M211.07,150.87H199.15v7.22h11.69v8.24H199.15v13.74H192V142.63h19.11Z" transform="translate(-67.84 -70.6)"/><path class="cls-2" d="M222.53,171.84h11.24v8.23H215.34V142.63h7.19Z" transform="translate(-67.84 -70.6)"/><path class="cls-2" d="M244.11,171.84h12.58v8.23H236.91V142.63h19.56v8.24H244.11v6.2h11.23v8.13H244.11Z" transform="translate(-67.84 -70.6)"/><path class="cls-2" d="M275.53,180.82a14.58,14.58,0,0,1-11.71-5.59,23,23,0,0,1,0-27.76,14.58,14.58,0,0,1,11.71-5.59,14.15,14.15,0,0,1,7.82,2.33,16.19,16.19,0,0,1,5.66,6.34l-6.2,4.28a7.78,7.78,0,0,0-3-3.4,8,8,0,0,0-4.31-1.2,8.2,8.2,0,0,0-6.68,3,14.35,14.35,0,0,0,0,16.16,8.21,8.21,0,0,0,6.68,3,7.94,7.94,0,0,0,4.33-1.23,7.73,7.73,0,0,0,2.95-3.37l6.2,4.28a16,16,0,0,1-5.62,6.34A14.17,14.17,0,0,1,275.53,180.82Z" transform="translate(-67.84 -70.6)"/><path class="cls-2" d="M313.51,142.63v8.24h-8.09v29.2h-7.19v-29.2h-8.09v-8.24Z" transform="translate(-67.84 -70.6)"/><path class="cls-2" d="M316.66,142.63h7.19v37.44h-7.19Z" transform="translate(-67.84 -70.6)"/><path class="cls-2" d="M355.86,175.21a14.8,14.8,0,0,1-23.2,0,22.54,22.54,0,0,1,0-27.71,14.78,14.78,0,0,1,23.2,0,22.54,22.54,0,0,1,0,27.71Zm-18.14-5.83a8.45,8.45,0,0,0,13.08,0,13.56,13.56,0,0,0,0-16,8.45,8.45,0,0,0-13.08,0,13.56,13.56,0,0,0,0,16Z" transform="translate(-67.84 -70.6)"/><path class="cls-2" d="M382.2,142.63h7.19v37.44H384l-12.14-20.32v20.32h-7.19V142.63h5.39L382.2,163Z" transform="translate(-67.84 -70.6)"/></g><ellipse class="cls-3" cx="145.05" cy="32.6" rx="47.52" ry="27.6"/><ellipse class="cls-3" cx="278.69" cy="32.6" rx="47.52" ry="27.6"/><path class="cls-3" d="M260.4,105.8a19.31,19.31,0,1,1,38.62,0" transform="translate(-67.84 -70.6)"/><rect class="cls-2" x="100.33" y="46.21" width="7.2" height="40.11"/><rect class="cls-2" x="314.2" y="48.21" width="7.2" height="40.11"/></g><g id="Layer_9" data-name="Layer 9"><path class="cls-4" d="M67.84,76.1v27.1L114,101.8a28.44,28.44,0,0,1,7.9,1.1,27.24,27.24,0,0,1,7.8,3.6,15.27,15.27,0,0,1,.4,22,17.37,17.37,0,0,1-6.6,4.1c-1.4.4-2.3.6-6.8,1-1.8.2-4.2.4-7.21.7-.1,8.61-.2,17.11-.3,25.61a45,45,0,0,0,16.51-.6,46.32,46.32,0,0,0,22.71-12.2,44.48,44.48,0,0,0,8.9-12.91,42.79,42.79,0,0,0,3.3-15.6,38.71,38.71,0,0,0-12.5-30.4,57.25,57.25,0,0,0-10-7s-2.2-1.2-4.3-2.2c-9.4-4.2-27.61-3.1-29.41-2.9Z" transform="translate(-67.84 -70.6)"/></g></g><g id="Layer_2" data-name="Layer 2"><polygon class="cls-2" points="0 68.71 0 109.22 32.81 109.22 0 68.71"/></g><g id="Layer_3" data-name="Layer 3"><polygon class="cls-2" points="0 5.2 85.13 109.22 51.02 109.22 0 45.41 0 5.2"/></g></g><g id="Layer_2-2" data-name="Layer 2"><path class="cls-5" d="M211.07,119.31c-.7,2.4-6.7,2.8-13.3.8s-11.5-5.5-10.8-7.9" transform="translate(-67.84 -70.6)"/></g><g id="Layer_2_copy" data-name="Layer 2 copy"><path class="cls-5" d="M372.64,112.14c.7,2.4-4.1,6-10.7,8s-12.6,1.7-13.4-.7" transform="translate(-67.84 -70.6)"/></g></svg>