<svg xmlns="http://www.w3.org/2000/svg" version="1.1" xmlns:xlink="http://www.w3.org/1999/xlink"
     xmlns:svgjs="http://svgjs.dev/svgjs" width="2000" height="390" viewBox="0 0 2000 390">
  <g transform="matrix(1,0,0,1,0.6149006622516708,-0.6137542372881342)">
    <svg viewBox="0 0 302 59" data-background-color="#293040" preserveAspectRatio="xMidYMid meet" height="390"
         width="2000" xmlns="http://www.w3.org/2000/svg" xmlns:xlink="http://www.w3.org/1999/xlink">
      <g id="tight-bounds" transform="matrix(1,0,0,1,-0.09284999999999854,0.09284999999999854)">
        <svg viewBox="0 0 302.1857 58.814299999999996" height="58.814299999999996" width="302.1857">
          <g>
            <svg viewBox="0 0 302.1857 58.814299999999996" height="58.814299999999996" width="302.1857">
              <g>
                <svg viewBox="0 0 302.1857 58.814299999999996" height="58.814299999999996" width="302.1857">
                  <g id="textblocktransform">
                    <svg viewBox="0 0 302.1857 58.814299999999996" height="58.814299999999996" width="302.1857"
                         id="textblock">
                      <g>
                        <svg viewBox="0 0 302.1857 58.814299999999996" height="58.814299999999996" width="302.1857">
                          <g>
                            <svg>
                              <g></g>
                              <g></g>
                            </svg>
                          </g>
                          <g>
                            <svg>
                              <g>
                                <svg></svg>
                              </g>
                              <g></g>
                            </svg>
                          </g>
                          <g id="text-0">
                            <svg viewBox="0 0 302.1857 58.814299999999996" height="58.814299999999996" width="302.1857">
                              <g transform="matrix(1,0,0,1,0,11.307149999999996)">
                                <svg width="64.8" viewBox="0.15 -35.3 64.8 35.699999999999996" height="35.7"
                                     data-palette-color="#d5b263">
                                  <path
                                    d="M30.4-1.95L30.75 0 21.05 0 19.9-1.2 23.8-2.3 22.25-9.35 21.05-11.65 8.65-10.1 7.85-7.4 7.1-2.3 10.2-1.2 10.2 0.4 0.15-0.35 0.15-1.95 3.2-2.7 12.5-35.3 17.95-34.5 27.7-2.7 30.4-1.95ZM9.8-13.15L19.9-15.1 15.65-30.65 14.9-30.25 9.8-14 9.8-13.15ZM50.35-19.15L54.8-23.9 53-30.35 45.65-31.65 40.5-30.85 41.35-19.75 50.35-19.15ZM61.8-9.45L64.95-6.15 58.75-0.6 54.85-1.25 52.2-13 47.5-16.45 41-15.5 41.15-3.1 44.3-2.05 44.7-0.15 33.95-0.3 33.85-1.65 36.8-2.8 36.2-29.25 34.4-31.2 30.8-31.6 30.95-34.3 35.05-34.4 37.15-33.55 38.4-34.65 52-34.45 58.3-28.65 57.4-20.3 53.05-17 56.75-13.45 57.1-4.45 58.2-4.05 61.8-9.45Z"
                                    opacity="1" transform="matrix(1,0,0,1,0,0)" fill="#FFBF00FF"
                                    class="undefined-yy-0"></path>
                                </svg>
                              </g>
                              <g>
                                <svg xmlns="http://www.w3.org/2000/svg" xmlns:xlink="http://www.w3.org/1999/xlink"
                                     version="1.1" x="78.6857" y="0" viewBox="0 0 96 96"
                                     enable-background="new 0 0 96 96" xml:space="preserve" height="58.814299999999996"
                                     width="58.814299999999996" class="icon-cg-0" data-fill-palette-color="accent"
                                     id="cg-0">
                                  <path d="M48 26c-12.132 0-22 9.868-22 22s9.868 22 22 22 22-9.868 22-22S60.132 26 48 26z" fill="#FFBF00FF" data-fill-palette-color="accent"></path>
                                  <path
                                    d="M48 0C21.492 0 0 21.492 0 48s21.492 48 48 48 48-21.492 48-48S74.508 0 48 0zM14 48c0 1.1-0.896 2-2 2s-2-0.9-2-2c0-20.952 17.048-38 38-38 1.104 0 2 0.9 2 2s-0.896 2-2 2C29.248 14 14 29.252 14 48zM22 48c0-14.336 11.664-26 26-26s26 11.664 26 26S62.336 74 48 74 22 62.336 22 48zM80.952 66.936c-3.632 6.301-8.956 11.416-15.4 14.769-0.296 0.155-0.608 0.231-0.92 0.231-0.728 0-1.416-0.396-1.776-1.08-0.508-0.979-0.131-2.188 0.849-2.699 5.764-3.008 10.532-7.584 13.78-13.225 0.556-0.955 1.771-1.287 2.736-0.74C81.176 64.752 81.504 65.977 80.952 66.936L80.952 66.936z"
                                    fill="#FFBF00FF" data-fill-palette-color="accent"></path></svg>
                              </g>
                              <g transform="matrix(1,0,0,1,151.38569999999999,10.832149999999999)">
                                <svg width="150.79999999999998" viewBox="1.25 -35.7 150.79 36.35" height="36.35"
                                     data-palette-color="#d5b263">
                                  <path
                                    d="M8.15-34.3L20.45-35.2 23.6-33.05 25-35 27.65-32.9 22.95-27.25 21.05-29 18.65-32.1 11.15-30.9 7.2-26.9 10.25-21.25 23.2-17.85 26.25-14.1 25.35-4.35 15 0.45 5.85-2.05 4.3 0.45 1.25-0.25 4.3-6.95 6.85-6.2 14.75-3.65 22.55-6.75 21.05-14.5 5.7-17.65 2.85-28.1 8.15-34.3ZM37.4-34.95L56.7-34.95 55.95-29.45 53.2-30.2 53.2-32.15 44.9-32.15 46.05-2.25 48.5-1.5 48.5 0.45 38.25 0.1 38.25-1.15 41.75-2.25 41.35-32.15 38.6-32.15 33.55-31.4 33.55-29.45 30.35-29.05 29.95-34.95 37.4-34.95ZM73.95-31L64.65-30.7 61.9-20.4 64.4-8.5 70.75-3.05 74.95-2.7 81.55-14.25 79.05-26.15 73.95-31ZM66.65-35.7L76.59-34.8 83.3-27.5 85.09-13.25 77.55 0.35 68.65 0.65 60.55-7.45 58.65-20.05 61.3-32 66.65-35.7ZM108.64-19.15L113.09-23.9 111.29-30.35 103.94-31.65 98.79-30.85 99.64-19.75 108.64-19.15ZM120.09-9.45L123.24-6.15 117.04-0.6 113.14-1.25 110.49-13 105.79-16.45 99.29-15.5 99.44-3.1 102.59-2.05 102.99-0.15 92.24-0.3 92.14-1.65 95.09-2.8 94.49-29.25 92.69-31.2 89.09-31.6 89.24-34.3 93.34-34.4 95.44-33.55 96.69-34.65 110.29-34.45 116.59-28.65 115.69-20.3 111.34-17 115.04-13.45 115.39-4.45 116.49-4.05 120.09-9.45ZM151.99-7.3L152.04 0.6 126.04 0.25 125.79-1.45 130.79-2.35 129.09-32.15 124.64-33.7 124.24-35.45 151.14-34.8 151.19-28.35 148.64-28.45 147.89-31.6 134.34-31.65 133.39-30.4 133.64-19.65 149.04-18.6 148.59-16.4 133.79-16.1 133.64-11.95 136.19-3.45 148.84-2.95 149.44-7 151.99-7.3Z"
                                    opacity="1" transform="matrix(1,0,0,1,0,0)" fill="#FFBF00FF"
                                    class="undefined-yy-1"></path>
                                </svg>
                              </g>
                            </svg>
                          </g>
                        </svg>
                      </g>
                    </svg>
                  </g>
                </svg>
              </g>
            </svg>
          </g>
          <defs></defs>
        </svg>
        <rect width="302.1857" height="58.814299999999996" fill="none" stroke="none" visibility="hidden"></rect>
      </g>
    </svg>
  </g>
</svg>
